<svg width="64" height="64" viewBox="0 0 64 64" fill="none" xmlns="http://www.w3.org/2000/svg">
<path d="M32 64C49.6731 64 64 49.6731 64 32C64 14.3269 49.6731 0 32 0C14.3269 0 0 14.3269 0 32C0 49.6731 14.3269 64 32 64Z" fill="#3C5A99"/>
<path d="M34.4875 48.0001V33.4251H39.4L40.1375 27.7188H34.4875V24.0876C34.4875 22.4376 34.9438 21.3188 37.3063 21.3188H40.3V16.2313C39.7813 16.1626 37.9938 16.0063 35.9125 16.0063C31.5688 16.0063 28.5938 18.6563 28.5938 23.5251V27.7251H23.7V33.4313H28.5938V48.0001H34.4875Z" fill="white"/>
</svg>
