<svg width="96" height="74" viewBox="0 0 96 74" fill="none" xmlns="http://www.w3.org/2000/svg">
<path d="M23.2033 34.4477C19.7602 34.4593 16.3779 35.3501 13.3822 37.0345C17.5999 26.2002 24.5953 16.6466 33.6761 9.31922C34.1957 8.8946 34.6259 8.37258 34.9422 7.78296C35.2584 7.19335 35.4546 6.54768 35.5194 5.88284C35.5843 5.21799 35.5165 4.54698 35.32 3.90812C35.1236 3.26926 34.8022 2.67506 34.3743 2.15945C33.9465 1.64384 33.4204 1.21691 32.8263 0.903038C32.2322 0.58917 31.5816 0.39451 30.9116 0.33017C30.2417 0.26583 29.5655 0.333074 28.9218 0.528057C28.278 0.72304 27.6793 1.04195 27.1597 1.46657C8.54139 16.479 0.256226 37.2654 0.256226 50.153C0.288305 54.7098 1.65665 59.1588 4.19419 62.9567C6.73173 66.7546 10.3287 69.737 14.5458 71.54C17.2751 72.8521 20.2639 73.5462 23.2964 73.5724C25.9656 73.7012 28.6334 73.2906 31.138 72.3656C33.6425 71.4406 35.9317 70.0205 37.8667 68.1913C39.8016 66.3621 41.3421 64.1619 42.3947 61.7242C43.4473 59.2866 43.99 56.6621 43.99 54.0101C43.99 51.358 43.4473 48.7336 42.3947 46.2959C41.3421 43.8582 39.8016 41.6581 37.8667 39.8289C35.9317 37.9997 33.6425 36.5795 31.138 35.6545C28.6334 34.7295 25.9656 34.319 23.2964 34.4477H23.2033Z" fill="white"/>
<path d="M75.0555 34.448C71.6118 34.4554 68.2285 35.3465 65.2343 37.0348C69.4504 26.2118 76.4274 16.6614 85.4818 9.31951C86.0485 8.91411 86.5256 8.39792 86.8838 7.80268C87.242 7.20744 87.4736 6.54577 87.5645 5.85836C87.6553 5.17096 87.6034 4.47238 87.4121 3.80561C87.2207 3.13884 86.8938 2.518 86.4516 1.98128C86.0094 1.44456 85.4612 1.00333 84.8407 0.684736C84.2203 0.366143 83.5407 0.176933 82.8438 0.128745C82.1469 0.080556 81.4474 0.17441 80.7884 0.404533C80.1294 0.634657 79.5248 0.99618 79.0119 1.46685C60.3936 16.4793 52.1084 37.2657 52.1084 50.1533C52.1305 54.6585 53.4589 59.0622 55.935 62.8383C58.4112 66.6144 61.9304 69.6033 66.0722 71.4479C68.8705 72.7984 71.9438 73.4937 75.0555 73.4803C77.7247 73.6091 80.3925 73.1985 82.8971 72.2735C85.4016 71.3485 87.6908 69.9284 89.6257 68.0992C91.5607 66.27 93.1012 64.0698 94.1538 61.6321C95.2064 59.1945 95.7491 56.57 95.7491 53.918C95.7491 51.2659 95.2064 48.6415 94.1538 46.2038C93.1012 43.7661 91.5607 41.566 89.6257 39.7368C87.6908 37.9076 85.4016 36.4874 82.8971 35.5624C80.3925 34.6374 77.7247 34.2269 75.0555 34.3556V34.448Z" fill="white"/>
</svg>
