<svg width="97" height="75" viewBox="0 0 97 75" fill="none" xmlns="http://www.w3.org/2000/svg">
<path d="M73.3617 39.8178C76.8049 39.8062 80.1871 38.9154 83.1829 37.231C78.9651 48.0653 71.9697 57.6189 62.8889 64.9463C62.3694 65.3709 61.9392 65.8929 61.6229 66.4825C61.3066 67.0722 61.1105 67.7178 61.0456 68.3827C60.9808 69.0475 61.0486 69.7185 61.245 70.3574C61.4415 70.9962 61.7629 71.5904 62.1907 72.106C62.6186 72.6217 63.1446 73.0486 63.7388 73.3625C64.3329 73.6763 64.9835 73.871 65.6534 73.9353C66.3234 73.9997 66.9995 73.9324 67.6433 73.7374C68.287 73.5425 68.8858 73.2236 69.4053 72.7989C88.0237 57.7865 96.3088 37.0001 96.3088 24.1125C96.2768 19.5557 94.9084 15.1067 92.3709 11.3088C89.8333 7.51094 86.2364 4.52846 82.0193 2.72554C79.29 1.41345 76.3012 0.719252 73.2686 0.693083C70.5994 0.564321 67.9317 0.974889 65.4271 1.89988C62.9226 2.82487 60.6334 4.24503 58.6984 6.07423C56.7634 7.90343 55.2229 10.1036 54.1704 12.5413C53.1178 14.9789 52.5751 17.6034 52.5751 20.2554C52.5751 22.9075 53.1178 25.5319 54.1704 27.9696C55.2229 30.4073 56.7634 32.6074 58.6984 34.4366C60.6334 36.2658 62.9225 37.686 65.4271 38.611C67.9317 39.536 70.5994 39.9465 73.2686 39.8178L73.3617 39.8178Z" fill="white"/>
<path d="M21.5096 39.8175C24.9533 39.8101 28.3365 38.919 31.3307 37.2307C27.1147 48.0537 20.1376 57.6041 11.0833 64.946C10.5166 65.3514 10.0394 65.8676 9.68127 66.4628C9.3231 67.0581 9.09146 67.7197 9.00061 68.4071C8.90976 69.0945 8.96162 69.7931 9.153 70.4599C9.34438 71.1267 9.67123 71.7475 10.1134 72.2842C10.5556 72.8209 11.1039 73.2622 11.7243 73.5808C12.3448 73.8994 13.0244 74.0886 13.7213 74.1368C14.4182 74.1849 15.1177 74.0911 15.7767 73.861C16.4357 73.6308 17.0402 73.2693 17.5532 72.7986C36.1715 57.7862 44.4567 36.9998 44.4567 24.1122C44.4346 19.607 43.1062 15.2033 40.63 11.4272C38.1539 7.65111 34.6347 4.66225 30.4929 2.81763C27.6945 1.46715 24.6212 0.771818 21.5096 0.785177C18.8403 0.656416 16.1726 1.06698 13.668 1.99197C11.1635 2.91697 8.8743 4.33712 6.93932 6.16632C5.00434 7.99552 3.46386 10.1957 2.41128 12.6334C1.35871 15.071 0.815965 17.6955 0.815965 20.3475C0.815964 22.9996 1.3587 25.624 2.41128 28.0617C3.46386 30.4994 5.00434 32.6995 6.93932 34.5287C8.8743 36.3579 11.1635 37.7781 13.668 38.7031C16.1726 39.6281 18.8403 40.0386 21.5096 39.9099L21.5096 39.8175Z" fill="white"/>
</svg>
